rotated_Sprint_05400001_forces_filt5Hz.mot
version=1
nRows=33
nColumns=19
inDegrees=yes
endheader
time	R_ground_force_vx	R_ground_force_vy	R_ground_force_vz	R_ground_force_px	R_ground_force_py	R_ground_force_pz	R_ground_torque_x	R_ground_torque_y	R_ground_torque_z	L_ground_force_vx	L_ground_force_vy	L_ground_force_vz	L_ground_force_px	L_ground_force_py	L_ground_force_pz	L_ground_torque_x	L_ground_torque_y	L_ground_torque_z	
2.714500	  0.000000	  0.000000	  0.000000	  0.137913	  0.000000	 -0.509961	  0.000000	  0.000000	  0.000000	-162.339084	755.542150	 48.316713	  1.001966	  0.000000	 -0.378711	  0.000000	 -5.340655	  0.000000
2.715000	  0.000000	  0.000000	  0.000000	  0.139420	  0.000000	 -0.511037	  0.000000	  0.000000	  0.000000	-163.906845	768.219985	 48.830027	  1.000423	  0.000000	 -0.378460	  0.000000	 -5.400474	  0.000000
2.715500	  0.000000	  0.000000	  0.000000	  0.141022	  0.000000	 -0.511833	  0.000000	  0.000000	  0.000000	-165.471575	780.970788	 49.342164	  0.998905	  0.000000	 -0.378214	  0.000000	 -5.460459	  0.000000
2.716000	  0.000000	  0.000000	  0.000000	  0.142624	  0.000000	 -0.512628	  0.000000	  0.000000	  0.000000	-167.032838	793.793175	 49.852980	  0.997411	  0.000000	 -0.377973	  0.000000	 -5.520594	  0.000000
2.716500	  0.000000	  0.000000	  0.000000	  0.144226	  0.000000	 -0.513424	  0.000000	  0.000000	  0.000000	-168.590186	806.685719	 50.362329	  0.995941	  0.000000	 -0.377737	  0.000000	 -5.580864	  0.000000
2.717000	  0.000000	  0.000000	  0.000000	  0.145828	  0.000000	 -0.514219	  0.000000	  0.000000	  0.000000	-170.143164	819.646942	 50.870064	  0.994493	  0.000000	 -0.377506	  0.000000	 -5.641252	  0.000000
2.717500	  0.000000	  0.000000	  0.000000	  0.147429	  0.000000	 -0.515015	  0.000000	  0.000000	  0.000000	-171.691303	832.675316	 51.376034	  0.993066	  0.000000	 -0.377279	  0.000000	 -5.701743	  0.000000
2.718000	  0.000000	  0.000000	  0.000000	  0.149031	  0.000000	 -0.515811	  0.000000	  0.000000	  0.000000	-173.234128	845.769264	 51.880087	  0.991660	  0.000000	 -0.377056	  0.000000	 -5.762320	  0.000000
2.718500	  0.000000	  0.000000	  0.000000	  0.150633	  0.000000	 -0.516606	  0.000000	  0.000000	  0.000000	-174.771149	858.927161	 52.382067	  0.990274	  0.000000	 -0.376838	  0.000000	 -5.822965	  0.000000
2.719000	  0.000000	  0.000000	  0.000000	  0.152235	  0.000000	 -0.517402	  0.000000	  0.000000	  0.000000	-176.301869	872.147326	 52.881814	  0.988907	  0.000000	 -0.376623	  0.000000	 -5.883660	  0.000000
2.719500	  0.000000	  0.000000	  0.000000	  0.153837	  0.000000	 -0.518197	  0.000000	  0.000000	  0.000000	-177.825780	885.428029	 53.379164	  0.987558	  0.000000	 -0.376412	  0.000000	 -5.944386	  0.000000
2.720000	  0.000000	  0.000000	  0.000000	  0.155439	  0.000000	 -0.518993	  0.000000	  0.000000	  0.000000	-179.342362	898.767485	 53.873946	  0.986227	  0.000000	 -0.376205	  0.000000	 -6.005124	  0.000000
2.720500	  0.000000	  0.000000	  0.000000	  0.157156	  0.000000	 -0.519701	  0.000000	  0.000000	  0.000000	-180.851086	912.163855	 54.365986	  0.984913	  0.000000	 -0.376001	  0.000000	 -6.065852	  0.000000
2.721000	  0.000000	  0.000000	  0.000000	  0.158873	  0.000000	 -0.520409	  0.000000	  0.000000	  0.000000	-182.351412	925.615248	 54.855101	  0.983614	  0.000000	 -0.375800	  0.000000	 -6.126551	  0.000000
2.721500	  0.000000	  0.000000	  0.000000	  0.160589	  0.000000	 -0.521117	  0.000000	  0.000000	  0.000000	-183.842792	939.119715	 55.341099	  0.982332	  0.000000	 -0.375603	  0.000000	 -6.187201	  0.000000
2.722000	  0.000000	  0.000000	  0.000000	  0.162306	  0.000000	 -0.521825	  0.000000	  0.000000	  0.000000	-185.324670	952.675251	 55.823784	  0.981064	  0.000000	 -0.375409	  0.000000	 -6.247781	  0.000000
2.722500	  0.000000	  0.000000	  0.000000	  0.164023	  0.000000	 -0.522533	  0.000000	  0.000000	  0.000000	-186.796484	966.279793	 56.302947	  0.979810	  0.000000	 -0.375218	  0.000000	 -6.308271	  0.000000
2.723000	  0.000000	  0.000000	  0.000000	  0.165740	  0.000000	 -0.523240	  0.000000	  0.000000	  0.000000	-188.257664	979.931224	 56.778373	  0.978571	  0.000000	 -0.375029	  0.000000	 -6.368655	  0.000000
2.723500	  0.000000	  0.000000	  0.000000	  0.167457	  0.000000	 -0.523948	  0.000000	  0.000000	  0.000000	-189.707639	993.627373	 57.249838	  0.977344	  0.000000	 -0.374844	  0.000000	 -6.428914	  0.000000
2.724000	  0.000000	  0.000000	  0.000000	  0.169173	  0.000000	 -0.524656	  0.000000	  0.000000	  0.000000	-191.145836	1007.366028	 57.717106	  0.976130	  0.000000	 -0.374661	  0.000000	 -6.489033	  0.000000
2.724500	  0.000000	  0.000000	  0.000000	  0.170890	  0.000000	 -0.525364	  0.000000	  0.000000	  0.000000	-192.571678	1021.144942	 58.179932	  0.974928	  0.000000	 -0.374480	  0.000000	 -6.548996	  0.000000
2.725000	  0.000000	  0.000000	  0.000000	  0.172607	  0.000000	 -0.526072	  0.000000	  0.000000	  0.000000	-193.984589	1034.961835	 58.638062	  0.973738	  0.000000	 -0.374302	  0.000000	 -6.608789	  0.000000
2.725500	  0.000000	  0.000000	  0.000000	  0.174398	  0.000000	 -0.526587	  0.000000	  0.000000	  0.000000	-195.383996	1048.814402	 59.091228	  0.972558	  0.000000	 -0.374127	  0.000000	 -6.668398	  0.000000
2.726000	  0.000000	  0.000000	  0.000000	  0.176190	  0.000000	 -0.527102	  0.000000	  0.000000	  0.000000	-196.769324	1062.700312	 59.539150	  0.971389	  0.000000	 -0.373954	  0.000000	 -6.727812	  0.000000
2.726500	  0.000000	  0.000000	  0.000000	  0.177981	  0.000000	 -0.527618	  0.000000	  0.000000	  0.000000	-198.140005	1076.617213	 59.981536	  0.970231	  0.000000	 -0.373783	  0.000000	 -6.787019	  0.000000
2.727000	  0.000000	  0.000000	  0.000000	  0.179773	  0.000000	 -0.528133	  0.000000	  0.000000	  0.000000	-199.495472	1090.562735	 60.418080	  0.969082	  0.000000	 -0.373614	  0.000000	 -6.846007	  0.000000
2.727500	  0.000000	  0.000000	  0.000000	  0.181564	  0.000000	 -0.528648	  0.000000	  0.000000	  0.000000	-200.835165	1104.534494	 60.848465	  0.967942	  0.000000	 -0.373447	  0.000000	 -6.904769	  0.000000
2.728000	  0.000000	  0.000000	  0.000000	  0.183355	  0.000000	 -0.529163	  0.000000	  0.000000	  0.000000	-202.158533	1118.530089	 61.272358	  0.966811	  0.000000	 -0.373282	  0.000000	 -6.963296	  0.000000
2.728500	  0.000000	  0.000000	  0.000000	  0.185147	  0.000000	 -0.529678	  0.000000	  0.000000	  0.000000	-203.465030	1132.547112	 61.689417	  0.965688	  0.000000	 -0.373120	  0.000000	 -7.021582	  0.000000
2.729000	  0.000000	  0.000000	  0.000000	  0.186938	  0.000000	 -0.530194	  0.000000	  0.000000	  0.000000	-204.754126	1146.583143	 62.099289	  0.964574	  0.000000	 -0.372959	  0.000000	 -7.079622	  0.000000
2.729500	  0.000000	  0.000000	  0.000000	  0.188730	  0.000000	 -0.530709	  0.000000	  0.000000	  0.000000	-206.025299	1160.635753	 62.501612	  0.963466	  0.000000	 -0.372800	  0.000000	 -7.137413	  0.000000
2.730000	  0.000000	  0.000000	  0.000000	  0.190521	  0.000000	 -0.531224	  0.000000	  0.000000	  0.000000	-207.278047	1174.702509	 62.896021	  0.962366	  0.000000	 -0.372643	  0.000000	 -7.194952	  0.000000
2.730500	  0.000000	  0.000000	  0.000000	  0.192603	  0.000000	 -0.531708	  0.000000	  0.000000	  0.000000	-208.511881	1188.780975	 63.282141	  0.961273	  0.000000	 -0.372488	  0.000000	 -7.252237	  0.000000
